<?xml version="1.0" encoding="UTF-8"?>
<svg width="300" height="120" viewBox="0 0 300 120" xmlns="http://www.w3.org/2000/svg">
  <defs>
    <style>
      .logo-text { font-family: Arial, sans-serif; font-weight: bold; }
      .tagline-text { font-family: Arial, sans-serif; font-weight: normal; font-size: 10px; }
    </style>
  </defs>
  
  <!-- Document Icon -->
  <g transform="translate(20, 10) rotate(5)">
    <!-- Main document -->
    <rect x="0" y="0" width="40" height="50" fill="none" stroke="#8B4513" stroke-width="3" rx="2"/>
    
    <!-- Folded corner -->
    <path d="M 30 0 L 40 0 L 40 10 L 30 0" fill="#8B4513" stroke="#8B4513" stroke-width="1"/>
    
    <!-- Grid pattern (left side) -->
    <g stroke="#8B4513" stroke-width="1" fill="none">
      <!-- Horizontal lines -->
      <line x1="5" y1="15" x2="18" y2="15"/>
      <line x1="5" y1="20" x2="18" y2="20"/>
      <line x1="5" y1="25" x2="18" y2="25"/>
      <line x1="5" y1="30" x2="18" y2="30"/>
      <line x1="5" y1="35" x2="18" y2="35"/>
      <!-- Vertical lines -->
      <line x1="8" y1="12" x2="8" y2="38"/>
      <line x1="15" y1="12" x2="15" y2="38"/>
    </g>
    
    <!-- Bar chart (right side) -->
    <g fill="#8B4513">
      <rect x="22" y="25" width="4" height="15"/>
      <rect x="28" y="20" width="4" height="20"/>
      <rect x="34" y="30" width="4" height="10"/>
    </g>
  </g>
  
  <!-- Company Name -->
  <text x="80" y="45" class="logo-text" font-size="24" fill="#8B4513" transform="skewX(5)">gotomynumbers</text>
  
  <!-- Tagline -->
  <text x="80" y="65" class="tagline-text" font-size="8" fill="#8B4513" transform="skewX(5)">— POWERED BY GIA SOLUTIONS —</text>
</svg>
